# xmcd CD database file
#
# Track frame offsets:
#	150
#	22087
#	48376
#	70815
#	95074
#	113789
#	134370
#	157214
#	186879
#	197464
#	214049
#	243124
#
# Disc length: 3535 seconds
#
# Revision: 0
# Processed by: cddbd v1.5.1PL2 Copyright (c) Steve Scherf et al.
# Submitted via: CDex 1.50Beta7
#
DISCID=ab0dcd0c
DTITLE=Monica Trapaga and The Bachelor Pad - Girl Talk
DYEAR=1900
DGENRE=Jazz
TTITLE0=Girl Talk
TTITLE1=Star Eyes
TTITLE2=Madalena
TTITLE3=The Things We Did Last Summer
TTITLE4=Crazy Rhythm
TTITLE5=I Must Have That Man
TTITLE6=Get Out Of Town
TTITLE7=You Don't Know What Love Is
TTITLE8=Putting All My Eggs In One Basket
TTITLE9=We'll Be Together Again
TTITLE10=Easy Living
TTITLE11=Long As You're Living
EXTD=
EXTT0=
EXTT1=
EXTT2=
EXTT3=
EXTT4=
EXTT5=
EXTT6=
EXTT7=
EXTT8=
EXTT9=
EXTT10=
EXTT11=
PLAYORDER=
